<mxfile host="65bd71144e">
    <diagram name="accueil-1" id="AoCF5ZVc8eqbaxfW813y">
        <mxGraphModel dx="1803" dy="537" grid="1" gridSize="10" guides="1" tooltips="1" connect="1" arrows="1" fold="1" page="1" pageScale="1" pageWidth="827" pageHeight="1169" math="0" shadow="0">
            <root>
                <mxCell id="oZ48Hg6AOsEuT4Z4gW56-0"/>
                <mxCell id="oZ48Hg6AOsEuT4Z4gW56-1" parent="oZ48Hg6AOsEuT4Z4gW56-0"/>
                <mxCell id="oZ48Hg6AOsEuT4Z4gW56-2" value="" style="rounded=1;whiteSpace=wrap;html=1;" parent="oZ48Hg6AOsEuT4Z4gW56-1" vertex="1">
                    <mxGeometry x="20" y="10" width="800" height="170" as="geometry"/>
                </mxCell>
                <mxCell id="oZ48Hg6AOsEuT4Z4gW56-7" value="mascotte griffon animée" style="shape=delay;whiteSpace=wrap;html=1;" parent="oZ48Hg6AOsEuT4Z4gW56-1" vertex="1">
                    <mxGeometry x="-2.75" y="240" width="420" height="210" as="geometry"/>
                </mxCell>
                <mxCell id="qdglnxshyLlx-NJTReBS-0" value="" style="ellipse;whiteSpace=wrap;html=1;" parent="oZ48Hg6AOsEuT4Z4gW56-1" vertex="1">
                    <mxGeometry x="-30" y="690" width="910" height="420" as="geometry"/>
                </mxCell>
                <mxCell id="qdglnxshyLlx-NJTReBS-1" value="" style="line;strokeWidth=2;html=1;" parent="oZ48Hg6AOsEuT4Z4gW56-1" vertex="1">
                    <mxGeometry x="-50" y="1510" width="990" height="10" as="geometry"/>
                </mxCell>
                <mxCell id="qdglnxshyLlx-NJTReBS-4" style="edgeStyle=none;html=1;exitX=0.5;exitY=1;exitDx=0;exitDy=0;" parent="oZ48Hg6AOsEuT4Z4gW56-1" source="qdglnxshyLlx-NJTReBS-2" edge="1">
                    <mxGeometry relative="1" as="geometry">
                        <mxPoint x="135" y="1440" as="targetPoint"/>
                    </mxGeometry>
                </mxCell>
                <mxCell id="qdglnxshyLlx-NJTReBS-2" value="" style="shape=ext;double=1;whiteSpace=wrap;html=1;aspect=fixed;" parent="oZ48Hg6AOsEuT4Z4gW56-1" vertex="1">
                    <mxGeometry x="40" y="1240" width="200" height="200" as="geometry"/>
                </mxCell>
                <mxCell id="qdglnxshyLlx-NJTReBS-5" value="" style="shape=ext;double=1;whiteSpace=wrap;html=1;aspect=fixed;" parent="oZ48Hg6AOsEuT4Z4gW56-1" vertex="1">
                    <mxGeometry x="540" y="1240" width="200" height="200" as="geometry"/>
                </mxCell>
                <mxCell id="qdglnxshyLlx-NJTReBS-6" value="" style="shape=ext;double=1;whiteSpace=wrap;html=1;aspect=fixed;" parent="oZ48Hg6AOsEuT4Z4gW56-1" vertex="1">
                    <mxGeometry x="290" y="1240" width="200" height="200" as="geometry"/>
                </mxCell>
                <mxCell id="qdglnxshyLlx-NJTReBS-10" value="" style="line;strokeWidth=2;direction=south;html=1;" parent="oZ48Hg6AOsEuT4Z4gW56-1" vertex="1">
                    <mxGeometry x="360" y="1590" width="10" height="260" as="geometry"/>
                </mxCell>
                <mxCell id="qdglnxshyLlx-NJTReBS-11" value="" style="line;strokeWidth=4;direction=south;html=1;perimeter=backbonePerimeter;points=[];outlineConnect=0;rotation=-75;" parent="oZ48Hg6AOsEuT4Z4gW56-1" vertex="1">
                    <mxGeometry x="407.25" y="1648.47" width="10" height="870" as="geometry"/>
                </mxCell>
                <mxCell id="qdglnxshyLlx-NJTReBS-12" value="" style="line;strokeWidth=4;direction=south;html=1;perimeter=backbonePerimeter;points=[];outlineConnect=0;rotation=-90;" parent="oZ48Hg6AOsEuT4Z4gW56-1" vertex="1">
                    <mxGeometry x="430" y="2190" width="10" height="870" as="geometry"/>
                </mxCell>
                <mxCell id="qdglnxshyLlx-NJTReBS-13" value="" style="line;strokeWidth=4;direction=south;html=1;perimeter=backbonePerimeter;points=[];outlineConnect=0;rotation=-90;" parent="oZ48Hg6AOsEuT4Z4gW56-1" vertex="1">
                    <mxGeometry x="430" y="2420" width="10" height="870" as="geometry"/>
                </mxCell>
                <mxCell id="3MPiU6X2YdhnTLzIRbGI-0" value="Match précédent" style="text;strokeColor=none;align=center;fillColor=none;html=1;verticalAlign=middle;whiteSpace=wrap;rounded=0;" parent="oZ48Hg6AOsEuT4Z4gW56-1" vertex="1">
                    <mxGeometry x="110" y="1200" width="60" height="30" as="geometry"/>
                </mxCell>
                <mxCell id="3MPiU6X2YdhnTLzIRbGI-2" value="Match suivant" style="text;strokeColor=none;align=center;fillColor=none;html=1;verticalAlign=middle;whiteSpace=wrap;rounded=0;" parent="oZ48Hg6AOsEuT4Z4gW56-1" vertex="1">
                    <mxGeometry x="365" y="1200" width="60" height="30" as="geometry"/>
                </mxCell>
                <mxCell id="3MPiU6X2YdhnTLzIRbGI-5" style="edgeStyle=none;html=1;exitX=0;exitY=0.5;exitDx=0;exitDy=0;" parent="oZ48Hg6AOsEuT4Z4gW56-1" source="3MPiU6X2YdhnTLzIRbGI-4" edge="1">
                    <mxGeometry relative="1" as="geometry">
                        <mxPoint x="610" y="1215" as="targetPoint"/>
                    </mxGeometry>
                </mxCell>
                <mxCell id="3MPiU6X2YdhnTLzIRbGI-4" value="Classement" style="text;strokeColor=none;align=center;fillColor=none;html=1;verticalAlign=middle;whiteSpace=wrap;rounded=0;" parent="oZ48Hg6AOsEuT4Z4gW56-1" vertex="1">
                    <mxGeometry x="610" y="1200" width="60" height="30" as="geometry"/>
                </mxCell>
                <mxCell id="3MPiU6X2YdhnTLzIRbGI-6" value="" style="ellipse;shape=cloud;whiteSpace=wrap;html=1;" parent="oZ48Hg6AOsEuT4Z4gW56-1" vertex="1">
                    <mxGeometry x="30" y="1630" width="280" height="200" as="geometry"/>
                </mxCell>
                <mxCell id="3MPiU6X2YdhnTLzIRbGI-10" value="Technologies" style="text;strokeColor=none;fillColor=none;html=1;fontSize=24;fontStyle=1;verticalAlign=middle;align=center;" parent="oZ48Hg6AOsEuT4Z4gW56-1" vertex="1">
                    <mxGeometry x="470" y="1610" width="160" height="58.47" as="geometry"/>
                </mxCell>
                <mxCell id="3MPiU6X2YdhnTLzIRbGI-12" value="texte" style="shape=ext;double=1;rounded=1;whiteSpace=wrap;html=1;" parent="oZ48Hg6AOsEuT4Z4gW56-1" vertex="1">
                    <mxGeometry x="440" y="1690" width="230" height="90" as="geometry"/>
                </mxCell>
                <mxCell id="3MPiU6X2YdhnTLzIRbGI-13" value="" style="whiteSpace=wrap;html=1;aspect=fixed;" parent="oZ48Hg6AOsEuT4Z4gW56-1" vertex="1">
                    <mxGeometry x="220" y="740" width="100" height="100" as="geometry"/>
                </mxCell>
                <mxCell id="3MPiU6X2YdhnTLzIRbGI-14" value="" style="whiteSpace=wrap;html=1;aspect=fixed;" parent="oZ48Hg6AOsEuT4Z4gW56-1" vertex="1">
                    <mxGeometry x="350" y="740" width="210" height="210" as="geometry"/>
                </mxCell>
                <mxCell id="3MPiU6X2YdhnTLzIRbGI-15" value="" style="whiteSpace=wrap;html=1;aspect=fixed;" parent="oZ48Hg6AOsEuT4Z4gW56-1" vertex="1">
                    <mxGeometry x="220" y="860" width="100" height="100" as="geometry"/>
                </mxCell>
                <mxCell id="3MPiU6X2YdhnTLzIRbGI-17" value="" style="rounded=0;whiteSpace=wrap;html=1;" parent="oZ48Hg6AOsEuT4Z4gW56-1" vertex="1">
                    <mxGeometry x="220" y="980" width="340" height="80" as="geometry"/>
                </mxCell>
            </root>
        </mxGraphModel>
    </diagram>
</mxfile>